# xmcd
# 
# Track frame offsets:
#     150
#     15427
#     30285
#     49262
#     65985
#     78572
#     94842
#     108495
#     124470
#     145962
#     157647
# 
# Disc length: 2297
# 
# Revision: 7
# Processed by: cddbd v1.5.2PL0 Copyright (c) Steve Scherf et al.
# Submitted via: fre:ac v1.0.17
# 
DISCID=8e08f70b
DTITLE=The Rolling Stones - Through The Past, Darkly (Big Hits Vol.2)
DYEAR=1969
DGENRE=Rock
TTITLE0=Paint It, Black
TTITLE1=Ruby Tuesday
TTITLE2=She's A Rainbow
TTITLE3=Jumpin' Jack Flash
TTITLE4=Mother's Little Helper
TTITLE5=Let's Spend The Night Together
TTITLE6=Honky Tonk Women
TTITLE7=Dandelion
TTITLE8=2000 Light Years From Home
TTITLE9=Have You Seen Your Mother Baby, Standing In The Shadow?
TTITLE10=Street Fighting Man
EXTD=YEAR: 1969
EXTT0=
EXTT1=
EXTT2=
EXTT3=
EXTT4=
EXTT5=
EXTT6=
EXTT7=
EXTT8=
EXTT9=
EXTT10=
PLAYORDER=
